<mxfile host="Electron" modified="2023-06-21T16:08:43.491Z" agent="Mozilla/5.0 (X11; Linux x86_64) AppleWebKit/537.36 (KHTML, like Gecko) draw.io/21.3.7 Chrome/112.0.5615.204 Electron/24.5.0 Safari/537.36" etag="iQT3LEahStz_wb9JjkdV" version="21.3.7" type="device" pages="2">
  <diagram name="Page-1" id="-c6iK7B7yTJ1vNmO_4a8">
    <mxGraphModel dx="733" dy="438" grid="1" gridSize="10" guides="1" tooltips="1" connect="1" arrows="1" fold="1" page="1" pageScale="1" pageWidth="850" pageHeight="1100" math="0" shadow="0">
      <root>
        <mxCell id="0" />
        <mxCell id="1" parent="0" />
        <mxCell id="HL3i8Jm8TGKXOPYViMml-1" value="" style="edgeStyle=segmentEdgeStyle;endArrow=classic;html=1;curved=0;rounded=0;endSize=8;startSize=8;startArrow=classic;startFill=1;" parent="1" edge="1">
          <mxGeometry width="50" height="50" relative="1" as="geometry">
            <mxPoint x="320" y="320" as="sourcePoint" />
            <mxPoint x="80" y="80" as="targetPoint" />
          </mxGeometry>
        </mxCell>
        <mxCell id="HL3i8Jm8TGKXOPYViMml-2" value="" style="edgeStyle=segmentEdgeStyle;endArrow=classic;html=1;curved=0;rounded=0;endSize=8;startSize=8;startArrow=classic;startFill=1;" parent="1" edge="1">
          <mxGeometry width="50" height="50" relative="1" as="geometry">
            <mxPoint x="640" y="320" as="sourcePoint" />
            <mxPoint x="400" y="80" as="targetPoint" />
          </mxGeometry>
        </mxCell>
        <mxCell id="JiDwRtzm2NpwtQds3cW5-1" value="" style="ellipse;whiteSpace=wrap;html=1;aspect=fixed;fillColor=default;strokeColor=#43AA8B;" parent="1" vertex="1">
          <mxGeometry x="110" y="210" width="10" height="10" as="geometry" />
        </mxCell>
        <mxCell id="JiDwRtzm2NpwtQds3cW5-2" value="" style="ellipse;whiteSpace=wrap;html=1;aspect=fixed;fillColor=default;strokeColor=#43AA8B;" parent="1" vertex="1">
          <mxGeometry x="110" y="230" width="10" height="10" as="geometry" />
        </mxCell>
        <mxCell id="JiDwRtzm2NpwtQds3cW5-3" value="" style="ellipse;whiteSpace=wrap;html=1;aspect=fixed;fillColor=default;strokeColor=#43AA8B;" parent="1" vertex="1">
          <mxGeometry x="150" y="240" width="10" height="10" as="geometry" />
        </mxCell>
        <mxCell id="JiDwRtzm2NpwtQds3cW5-4" value="" style="ellipse;whiteSpace=wrap;html=1;aspect=fixed;fillColor=none;strokeColor=#43AA8B;" parent="1" vertex="1">
          <mxGeometry x="130" y="230" width="10" height="10" as="geometry" />
        </mxCell>
        <mxCell id="JiDwRtzm2NpwtQds3cW5-5" value="" style="ellipse;whiteSpace=wrap;html=1;aspect=fixed;fillColor=default;strokeColor=#43AA8B;" parent="1" vertex="1">
          <mxGeometry x="160" y="260" width="10" height="10" as="geometry" />
        </mxCell>
        <mxCell id="JiDwRtzm2NpwtQds3cW5-6" value="" style="ellipse;whiteSpace=wrap;html=1;aspect=fixed;fillColor=default;strokeColor=#43AA8B;" parent="1" vertex="1">
          <mxGeometry x="180" y="240" width="10" height="10" as="geometry" />
        </mxCell>
        <mxCell id="JiDwRtzm2NpwtQds3cW5-7" value="" style="ellipse;whiteSpace=wrap;html=1;aspect=fixed;fillColor=none;strokeColor=#43AA8B;" parent="1" vertex="1">
          <mxGeometry x="180" y="260" width="10" height="10" as="geometry" />
        </mxCell>
        <mxCell id="JiDwRtzm2NpwtQds3cW5-8" value="" style="ellipse;whiteSpace=wrap;html=1;aspect=fixed;fillColor=default;strokeColor=#43AA8B;" parent="1" vertex="1">
          <mxGeometry x="190" y="270" width="10" height="10" as="geometry" />
        </mxCell>
        <mxCell id="JiDwRtzm2NpwtQds3cW5-9" value="" style="ellipse;whiteSpace=wrap;html=1;aspect=fixed;fillColor=none;strokeColor=#43AA8B;" parent="1" vertex="1">
          <mxGeometry x="150" y="280" width="10" height="10" as="geometry" />
        </mxCell>
        <mxCell id="JiDwRtzm2NpwtQds3cW5-10" value="" style="ellipse;whiteSpace=wrap;html=1;aspect=fixed;fillColor=default;strokeColor=#43AA8B;" parent="1" vertex="1">
          <mxGeometry x="130" y="260" width="10" height="10" as="geometry" />
        </mxCell>
        <mxCell id="JiDwRtzm2NpwtQds3cW5-11" value="" style="ellipse;whiteSpace=wrap;html=1;aspect=fixed;fillColor=none;strokeColor=#43AA8B;" parent="1" vertex="1">
          <mxGeometry x="100" y="250" width="10" height="10" as="geometry" />
        </mxCell>
        <mxCell id="JiDwRtzm2NpwtQds3cW5-12" value="" style="ellipse;whiteSpace=wrap;html=1;aspect=fixed;fillColor=none;strokeColor=#43AA8B;" parent="1" vertex="1">
          <mxGeometry x="160" y="230" width="10" height="10" as="geometry" />
        </mxCell>
        <mxCell id="JiDwRtzm2NpwtQds3cW5-13" value="" style="ellipse;whiteSpace=wrap;html=1;aspect=fixed;fillColor=default;strokeColor=#43AA8B;" parent="1" vertex="1">
          <mxGeometry x="140" y="210" width="10" height="10" as="geometry" />
        </mxCell>
        <mxCell id="JiDwRtzm2NpwtQds3cW5-14" value="" style="ellipse;whiteSpace=wrap;html=1;aspect=fixed;fillColor=none;strokeColor=#43AA8B;" parent="1" vertex="1">
          <mxGeometry x="161" y="207" width="10" height="10" as="geometry" />
        </mxCell>
        <mxCell id="JiDwRtzm2NpwtQds3cW5-15" value="" style="ellipse;whiteSpace=wrap;html=1;aspect=fixed;fillColor=default;strokeColor=#43AA8B;" parent="1" vertex="1">
          <mxGeometry x="100" y="180" width="10" height="10" as="geometry" />
        </mxCell>
        <mxCell id="JiDwRtzm2NpwtQds3cW5-16" value="" style="ellipse;whiteSpace=wrap;html=1;aspect=fixed;fillColor=none;strokeColor=#43AA8B;" parent="1" vertex="1">
          <mxGeometry x="120" y="190" width="10" height="10" as="geometry" />
        </mxCell>
        <mxCell id="JiDwRtzm2NpwtQds3cW5-17" value="" style="ellipse;whiteSpace=wrap;html=1;aspect=fixed;fillColor=default;strokeColor=#43AA8B;" parent="1" vertex="1">
          <mxGeometry x="120" y="160" width="10" height="10" as="geometry" />
        </mxCell>
        <mxCell id="JiDwRtzm2NpwtQds3cW5-18" value="" style="ellipse;whiteSpace=wrap;html=1;aspect=fixed;fillColor=default;strokeColor=#43AA8B;" parent="1" vertex="1">
          <mxGeometry x="130" y="180" width="10" height="10" as="geometry" />
        </mxCell>
        <mxCell id="JiDwRtzm2NpwtQds3cW5-19" value="" style="whiteSpace=wrap;html=1;aspect=fixed;strokeColor=#F8961E;" parent="1" vertex="1">
          <mxGeometry x="200" y="100" width="10" height="10" as="geometry" />
        </mxCell>
        <mxCell id="JiDwRtzm2NpwtQds3cW5-20" value="" style="whiteSpace=wrap;html=1;aspect=fixed;strokeColor=#F8961E;" parent="1" vertex="1">
          <mxGeometry x="240" y="140" width="10" height="10" as="geometry" />
        </mxCell>
        <mxCell id="JiDwRtzm2NpwtQds3cW5-21" value="" style="whiteSpace=wrap;html=1;aspect=fixed;strokeColor=#F8961E;fillColor=none;" parent="1" vertex="1">
          <mxGeometry x="210" y="140" width="10" height="10" as="geometry" />
        </mxCell>
        <mxCell id="JiDwRtzm2NpwtQds3cW5-22" value="" style="whiteSpace=wrap;html=1;aspect=fixed;strokeColor=#F8961E;" parent="1" vertex="1">
          <mxGeometry x="220" y="130" width="10" height="10" as="geometry" />
        </mxCell>
        <mxCell id="JiDwRtzm2NpwtQds3cW5-23" value="" style="whiteSpace=wrap;html=1;aspect=fixed;strokeColor=#F8961E;fillColor=none;" parent="1" vertex="1">
          <mxGeometry x="240" y="110" width="10" height="10" as="geometry" />
        </mxCell>
        <mxCell id="JiDwRtzm2NpwtQds3cW5-24" value="" style="whiteSpace=wrap;html=1;aspect=fixed;strokeColor=#F8961E;" parent="1" vertex="1">
          <mxGeometry x="250" y="130" width="10" height="10" as="geometry" />
        </mxCell>
        <mxCell id="JiDwRtzm2NpwtQds3cW5-25" value="" style="whiteSpace=wrap;html=1;aspect=fixed;strokeColor=#F8961E;" parent="1" vertex="1">
          <mxGeometry x="250" y="160" width="10" height="10" as="geometry" />
        </mxCell>
        <mxCell id="JiDwRtzm2NpwtQds3cW5-26" value="" style="whiteSpace=wrap;html=1;aspect=fixed;strokeColor=#F8961E;fillColor=none;" parent="1" vertex="1">
          <mxGeometry x="250" y="190" width="10" height="10" as="geometry" />
        </mxCell>
        <mxCell id="JiDwRtzm2NpwtQds3cW5-27" value="" style="whiteSpace=wrap;html=1;aspect=fixed;strokeColor=#F8961E;" parent="1" vertex="1">
          <mxGeometry x="270" y="170" width="10" height="10" as="geometry" />
        </mxCell>
        <mxCell id="JiDwRtzm2NpwtQds3cW5-28" value="" style="whiteSpace=wrap;html=1;aspect=fixed;strokeColor=#F8961E;fillColor=none;" parent="1" vertex="1">
          <mxGeometry x="270" y="150" width="10" height="10" as="geometry" />
        </mxCell>
        <mxCell id="JiDwRtzm2NpwtQds3cW5-29" value="" style="whiteSpace=wrap;html=1;aspect=fixed;strokeColor=#F8961E;" parent="1" vertex="1">
          <mxGeometry x="300" y="140" width="10" height="10" as="geometry" />
        </mxCell>
        <mxCell id="JiDwRtzm2NpwtQds3cW5-30" value="" style="whiteSpace=wrap;html=1;aspect=fixed;strokeColor=#F8961E;" parent="1" vertex="1">
          <mxGeometry x="280" y="130" width="10" height="10" as="geometry" />
        </mxCell>
        <mxCell id="JiDwRtzm2NpwtQds3cW5-31" value="" style="whiteSpace=wrap;html=1;aspect=fixed;strokeColor=#F8961E;fillColor=none;" parent="1" vertex="1">
          <mxGeometry x="270" y="110" width="10" height="10" as="geometry" />
        </mxCell>
        <mxCell id="JiDwRtzm2NpwtQds3cW5-32" value="" style="whiteSpace=wrap;html=1;aspect=fixed;strokeColor=#F8961E;" parent="1" vertex="1">
          <mxGeometry x="290" y="160" width="10" height="10" as="geometry" />
        </mxCell>
        <mxCell id="JiDwRtzm2NpwtQds3cW5-33" value="" style="whiteSpace=wrap;html=1;aspect=fixed;strokeColor=#F8961E;" parent="1" vertex="1">
          <mxGeometry x="290" y="180" width="10" height="10" as="geometry" />
        </mxCell>
        <mxCell id="JiDwRtzm2NpwtQds3cW5-34" value="" style="whiteSpace=wrap;html=1;aspect=fixed;strokeColor=#F8961E;" parent="1" vertex="1">
          <mxGeometry x="280" y="200" width="10" height="10" as="geometry" />
        </mxCell>
        <mxCell id="JiDwRtzm2NpwtQds3cW5-35" value="" style="whiteSpace=wrap;html=1;aspect=fixed;strokeColor=#F8961E;fillColor=none;" parent="1" vertex="1">
          <mxGeometry x="300" y="200" width="10" height="10" as="geometry" />
        </mxCell>
        <mxCell id="JiDwRtzm2NpwtQds3cW5-36" value="" style="whiteSpace=wrap;html=1;aspect=fixed;strokeColor=#F8961E;fillColor=none;" parent="1" vertex="1">
          <mxGeometry x="180" y="110" width="10" height="10" as="geometry" />
        </mxCell>
        <mxCell id="JiDwRtzm2NpwtQds3cW5-37" value="" style="ellipse;whiteSpace=wrap;html=1;aspect=fixed;fillColor=default;strokeColor=#43AA8B;" parent="1" vertex="1">
          <mxGeometry x="210" y="260" width="10" height="10" as="geometry" />
        </mxCell>
        <mxCell id="JiDwRtzm2NpwtQds3cW5-38" value="" style="ellipse;whiteSpace=wrap;html=1;aspect=fixed;fillColor=default;strokeColor=#43AA8B;" parent="1" vertex="1">
          <mxGeometry x="180" y="290" width="10" height="10" as="geometry" />
        </mxCell>
        <mxCell id="JiDwRtzm2NpwtQds3cW5-46" value="" style="endArrow=none;html=1;rounded=0;" parent="1" edge="1">
          <mxGeometry width="50" height="50" relative="1" as="geometry">
            <mxPoint x="260" y="290" as="sourcePoint" />
            <mxPoint x="150" y="100" as="targetPoint" />
          </mxGeometry>
        </mxCell>
        <mxCell id="JiDwRtzm2NpwtQds3cW5-47" value="" style="ellipse;whiteSpace=wrap;html=1;aspect=fixed;fillColor=default;strokeColor=#43AA8B;" parent="1" vertex="1">
          <mxGeometry x="430" y="210" width="10" height="10" as="geometry" />
        </mxCell>
        <mxCell id="JiDwRtzm2NpwtQds3cW5-48" value="" style="ellipse;whiteSpace=wrap;html=1;aspect=fixed;fillColor=default;strokeColor=#43AA8B;" parent="1" vertex="1">
          <mxGeometry x="430" y="230" width="10" height="10" as="geometry" />
        </mxCell>
        <mxCell id="JiDwRtzm2NpwtQds3cW5-49" value="" style="ellipse;whiteSpace=wrap;html=1;aspect=fixed;fillColor=default;strokeColor=#43AA8B;" parent="1" vertex="1">
          <mxGeometry x="470" y="240" width="10" height="10" as="geometry" />
        </mxCell>
        <mxCell id="JiDwRtzm2NpwtQds3cW5-50" value="" style="ellipse;whiteSpace=wrap;html=1;aspect=fixed;fillColor=none;strokeColor=#43AA8B;" parent="1" vertex="1">
          <mxGeometry x="450" y="230" width="10" height="10" as="geometry" />
        </mxCell>
        <mxCell id="JiDwRtzm2NpwtQds3cW5-51" value="" style="ellipse;whiteSpace=wrap;html=1;aspect=fixed;fillColor=default;strokeColor=#43AA8B;" parent="1" vertex="1">
          <mxGeometry x="480" y="260" width="10" height="10" as="geometry" />
        </mxCell>
        <mxCell id="JiDwRtzm2NpwtQds3cW5-52" value="" style="ellipse;whiteSpace=wrap;html=1;aspect=fixed;fillColor=default;strokeColor=#43AA8B;" parent="1" vertex="1">
          <mxGeometry x="500" y="240" width="10" height="10" as="geometry" />
        </mxCell>
        <mxCell id="JiDwRtzm2NpwtQds3cW5-53" value="" style="ellipse;whiteSpace=wrap;html=1;aspect=fixed;fillColor=none;strokeColor=#43AA8B;" parent="1" vertex="1">
          <mxGeometry x="500" y="260" width="10" height="10" as="geometry" />
        </mxCell>
        <mxCell id="JiDwRtzm2NpwtQds3cW5-54" value="" style="ellipse;whiteSpace=wrap;html=1;aspect=fixed;fillColor=default;strokeColor=#43AA8B;" parent="1" vertex="1">
          <mxGeometry x="510" y="270" width="10" height="10" as="geometry" />
        </mxCell>
        <mxCell id="JiDwRtzm2NpwtQds3cW5-55" value="" style="ellipse;whiteSpace=wrap;html=1;aspect=fixed;fillColor=none;strokeColor=#43AA8B;" parent="1" vertex="1">
          <mxGeometry x="470" y="280" width="10" height="10" as="geometry" />
        </mxCell>
        <mxCell id="JiDwRtzm2NpwtQds3cW5-56" value="" style="ellipse;whiteSpace=wrap;html=1;aspect=fixed;fillColor=default;strokeColor=#43AA8B;" parent="1" vertex="1">
          <mxGeometry x="450" y="260" width="10" height="10" as="geometry" />
        </mxCell>
        <mxCell id="JiDwRtzm2NpwtQds3cW5-57" value="" style="ellipse;whiteSpace=wrap;html=1;aspect=fixed;fillColor=none;strokeColor=#43AA8B;" parent="1" vertex="1">
          <mxGeometry x="420" y="250" width="10" height="10" as="geometry" />
        </mxCell>
        <mxCell id="JiDwRtzm2NpwtQds3cW5-58" value="" style="ellipse;whiteSpace=wrap;html=1;aspect=fixed;fillColor=none;strokeColor=#43AA8B;" parent="1" vertex="1">
          <mxGeometry x="480" y="230" width="10" height="10" as="geometry" />
        </mxCell>
        <mxCell id="JiDwRtzm2NpwtQds3cW5-59" value="" style="ellipse;whiteSpace=wrap;html=1;aspect=fixed;fillColor=default;strokeColor=#43AA8B;" parent="1" vertex="1">
          <mxGeometry x="460" y="210" width="10" height="10" as="geometry" />
        </mxCell>
        <mxCell id="JiDwRtzm2NpwtQds3cW5-60" value="" style="ellipse;whiteSpace=wrap;html=1;aspect=fixed;fillColor=#43AA8B;strokeColor=#43AA8B;" parent="1" vertex="1">
          <mxGeometry x="481" y="206" width="10" height="10" as="geometry" />
        </mxCell>
        <mxCell id="JiDwRtzm2NpwtQds3cW5-61" value="" style="ellipse;whiteSpace=wrap;html=1;aspect=fixed;fillColor=default;strokeColor=#43AA8B;" parent="1" vertex="1">
          <mxGeometry x="420" y="180" width="10" height="10" as="geometry" />
        </mxCell>
        <mxCell id="JiDwRtzm2NpwtQds3cW5-62" value="" style="ellipse;whiteSpace=wrap;html=1;aspect=fixed;fillColor=none;strokeColor=#43AA8B;" parent="1" vertex="1">
          <mxGeometry x="440" y="190" width="10" height="10" as="geometry" />
        </mxCell>
        <mxCell id="JiDwRtzm2NpwtQds3cW5-63" value="" style="ellipse;whiteSpace=wrap;html=1;aspect=fixed;fillColor=#43AA8B;strokeColor=#43AA8B;" parent="1" vertex="1">
          <mxGeometry x="440" y="160" width="10" height="10" as="geometry" />
        </mxCell>
        <mxCell id="JiDwRtzm2NpwtQds3cW5-64" value="" style="ellipse;whiteSpace=wrap;html=1;aspect=fixed;fillColor=default;strokeColor=#43AA8B;" parent="1" vertex="1">
          <mxGeometry x="450" y="180" width="10" height="10" as="geometry" />
        </mxCell>
        <mxCell id="JiDwRtzm2NpwtQds3cW5-65" value="" style="whiteSpace=wrap;html=1;aspect=fixed;strokeColor=#F8961E;" parent="1" vertex="1">
          <mxGeometry x="520" y="100" width="10" height="10" as="geometry" />
        </mxCell>
        <mxCell id="JiDwRtzm2NpwtQds3cW5-66" value="" style="whiteSpace=wrap;html=1;aspect=fixed;strokeColor=#F8961E;" parent="1" vertex="1">
          <mxGeometry x="560" y="140" width="10" height="10" as="geometry" />
        </mxCell>
        <mxCell id="JiDwRtzm2NpwtQds3cW5-67" value="" style="whiteSpace=wrap;html=1;aspect=fixed;strokeColor=#F8961E;fillColor=#F8961E;" parent="1" vertex="1">
          <mxGeometry x="530" y="140" width="10" height="10" as="geometry" />
        </mxCell>
        <mxCell id="JiDwRtzm2NpwtQds3cW5-68" value="" style="whiteSpace=wrap;html=1;aspect=fixed;strokeColor=#F8961E;" parent="1" vertex="1">
          <mxGeometry x="540" y="130" width="10" height="10" as="geometry" />
        </mxCell>
        <mxCell id="JiDwRtzm2NpwtQds3cW5-69" value="" style="whiteSpace=wrap;html=1;aspect=fixed;strokeColor=#F8961E;fillColor=none;" parent="1" vertex="1">
          <mxGeometry x="560" y="110" width="10" height="10" as="geometry" />
        </mxCell>
        <mxCell id="JiDwRtzm2NpwtQds3cW5-70" value="" style="whiteSpace=wrap;html=1;aspect=fixed;strokeColor=#F8961E;" parent="1" vertex="1">
          <mxGeometry x="570" y="130" width="10" height="10" as="geometry" />
        </mxCell>
        <mxCell id="JiDwRtzm2NpwtQds3cW5-71" value="" style="whiteSpace=wrap;html=1;aspect=fixed;strokeColor=#F8961E;" parent="1" vertex="1">
          <mxGeometry x="570" y="160" width="10" height="10" as="geometry" />
        </mxCell>
        <mxCell id="JiDwRtzm2NpwtQds3cW5-72" value="" style="whiteSpace=wrap;html=1;aspect=fixed;strokeColor=#F8961E;fillColor=#F8961E;" parent="1" vertex="1">
          <mxGeometry x="570" y="190" width="10" height="10" as="geometry" />
        </mxCell>
        <mxCell id="JiDwRtzm2NpwtQds3cW5-73" value="" style="whiteSpace=wrap;html=1;aspect=fixed;strokeColor=#F8961E;" parent="1" vertex="1">
          <mxGeometry x="590" y="170" width="10" height="10" as="geometry" />
        </mxCell>
        <mxCell id="JiDwRtzm2NpwtQds3cW5-74" value="" style="whiteSpace=wrap;html=1;aspect=fixed;strokeColor=#F8961E;fillColor=none;" parent="1" vertex="1">
          <mxGeometry x="590" y="150" width="10" height="10" as="geometry" />
        </mxCell>
        <mxCell id="JiDwRtzm2NpwtQds3cW5-75" value="" style="whiteSpace=wrap;html=1;aspect=fixed;strokeColor=#F8961E;" parent="1" vertex="1">
          <mxGeometry x="620" y="140" width="10" height="10" as="geometry" />
        </mxCell>
        <mxCell id="JiDwRtzm2NpwtQds3cW5-76" value="" style="whiteSpace=wrap;html=1;aspect=fixed;strokeColor=#F8961E;" parent="1" vertex="1">
          <mxGeometry x="600" y="130" width="10" height="10" as="geometry" />
        </mxCell>
        <mxCell id="JiDwRtzm2NpwtQds3cW5-77" value="" style="whiteSpace=wrap;html=1;aspect=fixed;strokeColor=#F8961E;fillColor=none;" parent="1" vertex="1">
          <mxGeometry x="590" y="110" width="10" height="10" as="geometry" />
        </mxCell>
        <mxCell id="JiDwRtzm2NpwtQds3cW5-78" value="" style="whiteSpace=wrap;html=1;aspect=fixed;strokeColor=#F8961E;" parent="1" vertex="1">
          <mxGeometry x="610" y="160" width="10" height="10" as="geometry" />
        </mxCell>
        <mxCell id="JiDwRtzm2NpwtQds3cW5-79" value="" style="whiteSpace=wrap;html=1;aspect=fixed;strokeColor=#F8961E;" parent="1" vertex="1">
          <mxGeometry x="610" y="180" width="10" height="10" as="geometry" />
        </mxCell>
        <mxCell id="JiDwRtzm2NpwtQds3cW5-80" value="" style="whiteSpace=wrap;html=1;aspect=fixed;strokeColor=#F8961E;" parent="1" vertex="1">
          <mxGeometry x="600" y="200" width="10" height="10" as="geometry" />
        </mxCell>
        <mxCell id="JiDwRtzm2NpwtQds3cW5-81" value="" style="whiteSpace=wrap;html=1;aspect=fixed;strokeColor=#F8961E;fillColor=none;" parent="1" vertex="1">
          <mxGeometry x="620" y="200" width="10" height="10" as="geometry" />
        </mxCell>
        <mxCell id="JiDwRtzm2NpwtQds3cW5-82" value="" style="whiteSpace=wrap;html=1;aspect=fixed;strokeColor=#F8961E;fillColor=#F8961E;" parent="1" vertex="1">
          <mxGeometry x="500" y="110" width="10" height="10" as="geometry" />
        </mxCell>
        <mxCell id="JiDwRtzm2NpwtQds3cW5-83" value="" style="ellipse;whiteSpace=wrap;html=1;aspect=fixed;fillColor=#43AA8B;strokeColor=#43AA8B;" parent="1" vertex="1">
          <mxGeometry x="530" y="260" width="10" height="10" as="geometry" />
        </mxCell>
        <mxCell id="JiDwRtzm2NpwtQds3cW5-84" value="" style="ellipse;whiteSpace=wrap;html=1;aspect=fixed;fillColor=default;strokeColor=#43AA8B;" parent="1" vertex="1">
          <mxGeometry x="500" y="290" width="10" height="10" as="geometry" />
        </mxCell>
        <mxCell id="JiDwRtzm2NpwtQds3cW5-85" value="" style="endArrow=none;html=1;rounded=0;dashed=1;strokeColor=#B3B3B3;" parent="1" edge="1">
          <mxGeometry width="50" height="50" relative="1" as="geometry">
            <mxPoint x="561" y="290" as="sourcePoint" />
            <mxPoint x="430" y="150" as="targetPoint" />
          </mxGeometry>
        </mxCell>
        <mxCell id="JiDwRtzm2NpwtQds3cW5-92" value="" style="endArrow=none;html=1;rounded=0;dashed=1;strokeColor=#B3B3B3;" parent="1" edge="1">
          <mxGeometry width="50" height="50" relative="1" as="geometry">
            <mxPoint x="240" y="290" as="sourcePoint" />
            <mxPoint x="130" y="100" as="targetPoint" />
          </mxGeometry>
        </mxCell>
        <mxCell id="JiDwRtzm2NpwtQds3cW5-93" value="" style="endArrow=none;html=1;rounded=0;dashed=1;strokeColor=#B3B3B3;" parent="1" edge="1">
          <mxGeometry width="50" height="50" relative="1" as="geometry">
            <mxPoint x="280" y="290" as="sourcePoint" />
            <mxPoint x="170" y="100" as="targetPoint" />
          </mxGeometry>
        </mxCell>
        <mxCell id="JiDwRtzm2NpwtQds3cW5-95" value="" style="endArrow=none;html=1;rounded=0;dashed=1;strokeColor=#B3B3B3;" parent="1" edge="1">
          <mxGeometry width="50" height="50" relative="1" as="geometry">
            <mxPoint x="620" y="240" as="sourcePoint" />
            <mxPoint x="490" y="100" as="targetPoint" />
          </mxGeometry>
        </mxCell>
        <mxCell id="JiDwRtzm2NpwtQds3cW5-96" value="" style="endArrow=none;html=1;rounded=0;strokeColor=#000000;" parent="1" edge="1">
          <mxGeometry width="50" height="50" relative="1" as="geometry">
            <mxPoint x="593" y="269" as="sourcePoint" />
            <mxPoint x="462" y="129" as="targetPoint" />
          </mxGeometry>
        </mxCell>
        <mxCell id="OeRC27weDJojfUNwchgR-4" value="" style="whiteSpace=wrap;html=1;aspect=fixed;strokeColor=#F8961E;fillColor=#F8961E;" parent="1" vertex="1">
          <mxGeometry x="365" y="370" width="10" height="10" as="geometry" />
        </mxCell>
        <mxCell id="OeRC27weDJojfUNwchgR-5" value="" style="ellipse;whiteSpace=wrap;html=1;aspect=fixed;fillColor=#43AA8B;strokeColor=#43AA8B;" parent="1" vertex="1">
          <mxGeometry x="345" y="370" width="10" height="10" as="geometry" />
        </mxCell>
        <mxCell id="OeRC27weDJojfUNwchgR-6" value="&lt;i&gt;Support Vectors &lt;/i&gt;(SVs)" style="text;html=1;strokeColor=none;fillColor=none;align=left;verticalAlign=middle;whiteSpace=wrap;rounded=0;" parent="1" vertex="1">
          <mxGeometry x="385" y="360" width="150" height="30" as="geometry" />
        </mxCell>
        <mxCell id="OeRC27weDJojfUNwchgR-9" value="" style="endArrow=none;html=1;rounded=0;dashed=1;strokeColor=#B3B3B3;strokeWidth=4;dashPattern=1 1;" parent="1" edge="1">
          <mxGeometry width="50" height="50" relative="1" as="geometry">
            <mxPoint x="240" y="344.79999999999995" as="sourcePoint" />
            <mxPoint x="210" y="344.79999999999995" as="targetPoint" />
          </mxGeometry>
        </mxCell>
        <mxCell id="5raTjZefIxMD__giCOpQ-1" value="" style="whiteSpace=wrap;html=1;aspect=fixed;strokeColor=#F8961E;fillColor=none;" parent="1" vertex="1">
          <mxGeometry x="365" y="340" width="10" height="10" as="geometry" />
        </mxCell>
        <mxCell id="5raTjZefIxMD__giCOpQ-2" value="" style="ellipse;whiteSpace=wrap;html=1;aspect=fixed;fillColor=none;strokeColor=#43AA8B;" parent="1" vertex="1">
          <mxGeometry x="345" y="340" width="10" height="10" as="geometry" />
        </mxCell>
        <mxCell id="5raTjZefIxMD__giCOpQ-3" value="Classes" style="text;html=1;strokeColor=none;fillColor=none;align=left;verticalAlign=middle;whiteSpace=wrap;rounded=0;" parent="1" vertex="1">
          <mxGeometry x="385" y="330" width="150" height="30" as="geometry" />
        </mxCell>
        <mxCell id="5raTjZefIxMD__giCOpQ-4" value="Margens" style="text;html=1;strokeColor=none;fillColor=none;align=left;verticalAlign=middle;whiteSpace=wrap;rounded=0;" parent="1" vertex="1">
          <mxGeometry x="250" y="330" width="60" height="30" as="geometry" />
        </mxCell>
        <mxCell id="5raTjZefIxMD__giCOpQ-6" value="" style="endArrow=none;html=1;rounded=0;strokeColor=#000000;strokeWidth=4;" parent="1" edge="1">
          <mxGeometry width="50" height="50" relative="1" as="geometry">
            <mxPoint x="240" y="374.79999999999995" as="sourcePoint" />
            <mxPoint x="210" y="374.79999999999995" as="targetPoint" />
          </mxGeometry>
        </mxCell>
        <mxCell id="5raTjZefIxMD__giCOpQ-7" value="Hiperplano" style="text;html=1;strokeColor=none;fillColor=none;align=left;verticalAlign=middle;whiteSpace=wrap;rounded=0;" parent="1" vertex="1">
          <mxGeometry x="250" y="360" width="60" height="30" as="geometry" />
        </mxCell>
        <mxCell id="5raTjZefIxMD__giCOpQ-8" value="" style="endArrow=classic;html=1;rounded=0;" parent="1" edge="1">
          <mxGeometry width="50" height="50" relative="1" as="geometry">
            <mxPoint x="514" y="240" as="sourcePoint" />
            <mxPoint x="534" y="220" as="targetPoint" />
          </mxGeometry>
        </mxCell>
        <mxCell id="5raTjZefIxMD__giCOpQ-9" value="Γ" style="text;html=1;strokeColor=none;fillColor=none;align=center;verticalAlign=middle;whiteSpace=wrap;rounded=0;rotation=0;" parent="1" vertex="1">
          <mxGeometry x="520" y="226" width="30" height="20" as="geometry" />
        </mxCell>
        <mxCell id="tkL4CRSaCuAM8GXbfwfn-1" value="Possível hiperplano" style="text;html=1;strokeColor=none;fillColor=none;align=center;verticalAlign=middle;whiteSpace=wrap;rounded=0;fontStyle=1" parent="1" vertex="1">
          <mxGeometry x="135" y="50" width="120" height="30" as="geometry" />
        </mxCell>
        <mxCell id="tkL4CRSaCuAM8GXbfwfn-2" value="Hiperplano com margem maximizada" style="text;html=1;strokeColor=none;fillColor=none;align=center;verticalAlign=middle;whiteSpace=wrap;rounded=0;fontStyle=1" parent="1" vertex="1">
          <mxGeometry x="400" y="50" width="239" height="30" as="geometry" />
        </mxCell>
      </root>
    </mxGraphModel>
  </diagram>
  <diagram id="2altrmNFm_cGVXtAMwIG" name="Page-2">
    <mxGraphModel dx="880" dy="525" grid="1" gridSize="10" guides="1" tooltips="1" connect="1" arrows="1" fold="1" page="1" pageScale="1" pageWidth="850" pageHeight="1100" math="0" shadow="0">
      <root>
        <mxCell id="0" />
        <mxCell id="1" parent="0" />
        <mxCell id="BbXF_XF0yoowA5S_xDoE-1" value="" style="edgeStyle=segmentEdgeStyle;endArrow=classic;html=1;curved=0;rounded=0;endSize=8;startSize=8;startArrow=classic;startFill=1;" edge="1" parent="1">
          <mxGeometry width="50" height="50" relative="1" as="geometry">
            <mxPoint x="245" y="270" as="sourcePoint" />
            <mxPoint x="45" y="70" as="targetPoint" />
          </mxGeometry>
        </mxCell>
        <mxCell id="BbXF_XF0yoowA5S_xDoE-2" value="" style="edgeStyle=segmentEdgeStyle;endArrow=classic;html=1;curved=0;rounded=0;endSize=8;startSize=8;startArrow=classic;startFill=1;" edge="1" parent="1">
          <mxGeometry width="50" height="50" relative="1" as="geometry">
            <mxPoint x="525" y="270" as="sourcePoint" />
            <mxPoint x="325" y="70" as="targetPoint" />
          </mxGeometry>
        </mxCell>
        <mxCell id="BbXF_XF0yoowA5S_xDoE-3" value="" style="edgeStyle=segmentEdgeStyle;endArrow=classic;html=1;curved=0;rounded=0;endSize=8;startSize=8;startArrow=classic;startFill=1;" edge="1" parent="1">
          <mxGeometry width="50" height="50" relative="1" as="geometry">
            <mxPoint x="805" y="270" as="sourcePoint" />
            <mxPoint x="605" y="70" as="targetPoint" />
          </mxGeometry>
        </mxCell>
        <mxCell id="BbXF_XF0yoowA5S_xDoE-4" value="" style="ellipse;whiteSpace=wrap;html=1;aspect=fixed;fillColor=default;strokeColor=#43AA8B;" vertex="1" parent="1">
          <mxGeometry x="75" y="170" width="10" height="10" as="geometry" />
        </mxCell>
        <mxCell id="BbXF_XF0yoowA5S_xDoE-5" value="" style="ellipse;whiteSpace=wrap;html=1;aspect=fixed;fillColor=default;strokeColor=#43AA8B;" vertex="1" parent="1">
          <mxGeometry x="75" y="190" width="10" height="10" as="geometry" />
        </mxCell>
        <mxCell id="BbXF_XF0yoowA5S_xDoE-6" value="" style="ellipse;whiteSpace=wrap;html=1;aspect=fixed;fillColor=default;strokeColor=#43AA8B;" vertex="1" parent="1">
          <mxGeometry x="115" y="200" width="10" height="10" as="geometry" />
        </mxCell>
        <mxCell id="BbXF_XF0yoowA5S_xDoE-7" value="" style="ellipse;whiteSpace=wrap;html=1;aspect=fixed;fillColor=#43AA8B;strokeColor=#43AA8B;" vertex="1" parent="1">
          <mxGeometry x="95" y="190" width="10" height="10" as="geometry" />
        </mxCell>
        <mxCell id="BbXF_XF0yoowA5S_xDoE-8" value="" style="ellipse;whiteSpace=wrap;html=1;aspect=fixed;fillColor=default;strokeColor=#43AA8B;" vertex="1" parent="1">
          <mxGeometry x="125" y="220" width="10" height="10" as="geometry" />
        </mxCell>
        <mxCell id="BbXF_XF0yoowA5S_xDoE-9" value="" style="ellipse;whiteSpace=wrap;html=1;aspect=fixed;fillColor=default;strokeColor=#43AA8B;" vertex="1" parent="1">
          <mxGeometry x="155" y="200" width="10" height="10" as="geometry" />
        </mxCell>
        <mxCell id="BbXF_XF0yoowA5S_xDoE-10" value="" style="ellipse;whiteSpace=wrap;html=1;aspect=fixed;fillColor=#43AA8B;strokeColor=#43AA8B;" vertex="1" parent="1">
          <mxGeometry x="145" y="220" width="10" height="10" as="geometry" />
        </mxCell>
        <mxCell id="BbXF_XF0yoowA5S_xDoE-11" value="" style="ellipse;whiteSpace=wrap;html=1;aspect=fixed;fillColor=default;strokeColor=#43AA8B;" vertex="1" parent="1">
          <mxGeometry x="155" y="230" width="10" height="10" as="geometry" />
        </mxCell>
        <mxCell id="BbXF_XF0yoowA5S_xDoE-12" value="" style="ellipse;whiteSpace=wrap;html=1;aspect=fixed;fillColor=#43AA8B;strokeColor=#43AA8B;" vertex="1" parent="1">
          <mxGeometry x="115" y="240" width="10" height="10" as="geometry" />
        </mxCell>
        <mxCell id="BbXF_XF0yoowA5S_xDoE-13" value="" style="ellipse;whiteSpace=wrap;html=1;aspect=fixed;fillColor=default;strokeColor=#43AA8B;" vertex="1" parent="1">
          <mxGeometry x="95" y="220" width="10" height="10" as="geometry" />
        </mxCell>
        <mxCell id="BbXF_XF0yoowA5S_xDoE-14" value="" style="ellipse;whiteSpace=wrap;html=1;aspect=fixed;fillColor=#43AA8B;strokeColor=#43AA8B;" vertex="1" parent="1">
          <mxGeometry x="65" y="210" width="10" height="10" as="geometry" />
        </mxCell>
        <mxCell id="BbXF_XF0yoowA5S_xDoE-15" value="" style="ellipse;whiteSpace=wrap;html=1;aspect=fixed;fillColor=#43AA8B;strokeColor=#43AA8B;" vertex="1" parent="1">
          <mxGeometry x="125" y="190" width="10" height="10" as="geometry" />
        </mxCell>
        <mxCell id="BbXF_XF0yoowA5S_xDoE-16" value="" style="ellipse;whiteSpace=wrap;html=1;aspect=fixed;fillColor=default;strokeColor=#43AA8B;" vertex="1" parent="1">
          <mxGeometry x="105" y="170" width="10" height="10" as="geometry" />
        </mxCell>
        <mxCell id="BbXF_XF0yoowA5S_xDoE-17" value="" style="ellipse;whiteSpace=wrap;html=1;aspect=fixed;fillColor=#43AA8B;strokeColor=#43AA8B;" vertex="1" parent="1">
          <mxGeometry x="125" y="160" width="10" height="10" as="geometry" />
        </mxCell>
        <mxCell id="BbXF_XF0yoowA5S_xDoE-18" value="" style="ellipse;whiteSpace=wrap;html=1;aspect=fixed;fillColor=default;strokeColor=#43AA8B;" vertex="1" parent="1">
          <mxGeometry x="65" y="140" width="10" height="10" as="geometry" />
        </mxCell>
        <mxCell id="BbXF_XF0yoowA5S_xDoE-19" value="" style="ellipse;whiteSpace=wrap;html=1;aspect=fixed;fillColor=#43AA8B;strokeColor=#43AA8B;" vertex="1" parent="1">
          <mxGeometry x="85" y="150" width="10" height="10" as="geometry" />
        </mxCell>
        <mxCell id="BbXF_XF0yoowA5S_xDoE-20" value="" style="ellipse;whiteSpace=wrap;html=1;aspect=fixed;fillColor=default;strokeColor=#43AA8B;" vertex="1" parent="1">
          <mxGeometry x="85" y="130" width="10" height="10" as="geometry" />
        </mxCell>
        <mxCell id="BbXF_XF0yoowA5S_xDoE-21" value="" style="ellipse;whiteSpace=wrap;html=1;aspect=fixed;fillColor=default;strokeColor=#43AA8B;" vertex="1" parent="1">
          <mxGeometry x="95" y="140" width="10" height="10" as="geometry" />
        </mxCell>
        <mxCell id="BbXF_XF0yoowA5S_xDoE-22" value="" style="whiteSpace=wrap;html=1;aspect=fixed;strokeColor=#F8961E;" vertex="1" parent="1">
          <mxGeometry x="115" y="90" width="10" height="10" as="geometry" />
        </mxCell>
        <mxCell id="BbXF_XF0yoowA5S_xDoE-23" value="" style="whiteSpace=wrap;html=1;aspect=fixed;strokeColor=#F8961E;" vertex="1" parent="1">
          <mxGeometry x="145" y="140" width="10" height="10" as="geometry" />
        </mxCell>
        <mxCell id="BbXF_XF0yoowA5S_xDoE-24" value="" style="whiteSpace=wrap;html=1;aspect=fixed;strokeColor=#F8961E;" vertex="1" parent="1">
          <mxGeometry x="115" y="120" width="10" height="10" as="geometry" />
        </mxCell>
        <mxCell id="BbXF_XF0yoowA5S_xDoE-25" value="" style="whiteSpace=wrap;html=1;aspect=fixed;strokeColor=#F8961E;fillColor=#F8961E;" vertex="1" parent="1">
          <mxGeometry x="155" y="100" width="10" height="10" as="geometry" />
        </mxCell>
        <mxCell id="BbXF_XF0yoowA5S_xDoE-26" value="" style="whiteSpace=wrap;html=1;aspect=fixed;strokeColor=#F8961E;" vertex="1" parent="1">
          <mxGeometry x="165" y="180" width="10" height="10" as="geometry" />
        </mxCell>
        <mxCell id="BbXF_XF0yoowA5S_xDoE-27" value="" style="whiteSpace=wrap;html=1;aspect=fixed;strokeColor=#F8961E;" vertex="1" parent="1">
          <mxGeometry x="185" y="160" width="10" height="10" as="geometry" />
        </mxCell>
        <mxCell id="BbXF_XF0yoowA5S_xDoE-28" value="" style="whiteSpace=wrap;html=1;aspect=fixed;strokeColor=#F8961E;fillColor=#F8961E;" vertex="1" parent="1">
          <mxGeometry x="185" y="140" width="10" height="10" as="geometry" />
        </mxCell>
        <mxCell id="BbXF_XF0yoowA5S_xDoE-29" value="" style="whiteSpace=wrap;html=1;aspect=fixed;strokeColor=#F8961E;" vertex="1" parent="1">
          <mxGeometry x="215" y="130" width="10" height="10" as="geometry" />
        </mxCell>
        <mxCell id="BbXF_XF0yoowA5S_xDoE-30" value="" style="whiteSpace=wrap;html=1;aspect=fixed;strokeColor=#F8961E;" vertex="1" parent="1">
          <mxGeometry x="185" y="100" width="10" height="10" as="geometry" />
        </mxCell>
        <mxCell id="BbXF_XF0yoowA5S_xDoE-31" value="" style="whiteSpace=wrap;html=1;aspect=fixed;strokeColor=#F8961E;fillColor=#F8961E;" vertex="1" parent="1">
          <mxGeometry x="215" y="190" width="10" height="10" as="geometry" />
        </mxCell>
        <mxCell id="BbXF_XF0yoowA5S_xDoE-32" value="" style="whiteSpace=wrap;html=1;aspect=fixed;strokeColor=#F8961E;fillColor=#F8961E;" vertex="1" parent="1">
          <mxGeometry x="95" y="100" width="10" height="10" as="geometry" />
        </mxCell>
        <mxCell id="BbXF_XF0yoowA5S_xDoE-33" value="" style="ellipse;whiteSpace=wrap;html=1;aspect=fixed;fillColor=default;strokeColor=#43AA8B;" vertex="1" parent="1">
          <mxGeometry x="185" y="220" width="10" height="10" as="geometry" />
        </mxCell>
        <mxCell id="BbXF_XF0yoowA5S_xDoE-34" value="" style="ellipse;whiteSpace=wrap;html=1;aspect=fixed;fillColor=default;strokeColor=#43AA8B;" vertex="1" parent="1">
          <mxGeometry x="145" y="250" width="10" height="10" as="geometry" />
        </mxCell>
        <mxCell id="BbXF_XF0yoowA5S_xDoE-35" value="" style="ellipse;whiteSpace=wrap;html=1;aspect=fixed;fillColor=default;strokeColor=#43AA8B;" vertex="1" parent="1">
          <mxGeometry x="355" y="170" width="10" height="10" as="geometry" />
        </mxCell>
        <mxCell id="BbXF_XF0yoowA5S_xDoE-36" value="" style="ellipse;whiteSpace=wrap;html=1;aspect=fixed;fillColor=default;strokeColor=#43AA8B;" vertex="1" parent="1">
          <mxGeometry x="355" y="190" width="10" height="10" as="geometry" />
        </mxCell>
        <mxCell id="BbXF_XF0yoowA5S_xDoE-37" value="" style="ellipse;whiteSpace=wrap;html=1;aspect=fixed;fillColor=default;strokeColor=#43AA8B;" vertex="1" parent="1">
          <mxGeometry x="395" y="200" width="10" height="10" as="geometry" />
        </mxCell>
        <mxCell id="BbXF_XF0yoowA5S_xDoE-38" value="" style="ellipse;whiteSpace=wrap;html=1;aspect=fixed;fillColor=#43AA8B;strokeColor=#43AA8B;" vertex="1" parent="1">
          <mxGeometry x="375" y="190" width="10" height="10" as="geometry" />
        </mxCell>
        <mxCell id="BbXF_XF0yoowA5S_xDoE-39" value="" style="ellipse;whiteSpace=wrap;html=1;aspect=fixed;fillColor=default;strokeColor=#43AA8B;" vertex="1" parent="1">
          <mxGeometry x="405" y="220" width="10" height="10" as="geometry" />
        </mxCell>
        <mxCell id="BbXF_XF0yoowA5S_xDoE-40" value="" style="ellipse;whiteSpace=wrap;html=1;aspect=fixed;fillColor=default;strokeColor=#43AA8B;" vertex="1" parent="1">
          <mxGeometry x="435" y="200" width="10" height="10" as="geometry" />
        </mxCell>
        <mxCell id="BbXF_XF0yoowA5S_xDoE-41" value="" style="ellipse;whiteSpace=wrap;html=1;aspect=fixed;fillColor=#43AA8B;strokeColor=#43AA8B;" vertex="1" parent="1">
          <mxGeometry x="425" y="220" width="10" height="10" as="geometry" />
        </mxCell>
        <mxCell id="BbXF_XF0yoowA5S_xDoE-42" value="" style="ellipse;whiteSpace=wrap;html=1;aspect=fixed;fillColor=default;strokeColor=#43AA8B;" vertex="1" parent="1">
          <mxGeometry x="435" y="230" width="10" height="10" as="geometry" />
        </mxCell>
        <mxCell id="BbXF_XF0yoowA5S_xDoE-43" value="" style="ellipse;whiteSpace=wrap;html=1;aspect=fixed;fillColor=#43AA8B;strokeColor=#43AA8B;" vertex="1" parent="1">
          <mxGeometry x="395" y="240" width="10" height="10" as="geometry" />
        </mxCell>
        <mxCell id="BbXF_XF0yoowA5S_xDoE-44" value="" style="ellipse;whiteSpace=wrap;html=1;aspect=fixed;fillColor=default;strokeColor=#43AA8B;" vertex="1" parent="1">
          <mxGeometry x="375" y="220" width="10" height="10" as="geometry" />
        </mxCell>
        <mxCell id="BbXF_XF0yoowA5S_xDoE-45" value="" style="ellipse;whiteSpace=wrap;html=1;aspect=fixed;fillColor=#43AA8B;strokeColor=#43AA8B;" vertex="1" parent="1">
          <mxGeometry x="345" y="210" width="10" height="10" as="geometry" />
        </mxCell>
        <mxCell id="BbXF_XF0yoowA5S_xDoE-46" value="" style="ellipse;whiteSpace=wrap;html=1;aspect=fixed;fillColor=#43AA8B;strokeColor=#43AA8B;" vertex="1" parent="1">
          <mxGeometry x="405" y="190" width="10" height="10" as="geometry" />
        </mxCell>
        <mxCell id="BbXF_XF0yoowA5S_xDoE-47" value="" style="ellipse;whiteSpace=wrap;html=1;aspect=fixed;fillColor=default;strokeColor=#43AA8B;" vertex="1" parent="1">
          <mxGeometry x="385" y="170" width="10" height="10" as="geometry" />
        </mxCell>
        <mxCell id="BbXF_XF0yoowA5S_xDoE-48" value="" style="ellipse;whiteSpace=wrap;html=1;aspect=fixed;fillColor=#43AA8B;strokeColor=#43AA8B;" vertex="1" parent="1">
          <mxGeometry x="405" y="160" width="10" height="10" as="geometry" />
        </mxCell>
        <mxCell id="BbXF_XF0yoowA5S_xDoE-49" value="" style="ellipse;whiteSpace=wrap;html=1;aspect=fixed;fillColor=default;strokeColor=#43AA8B;" vertex="1" parent="1">
          <mxGeometry x="345" y="140" width="10" height="10" as="geometry" />
        </mxCell>
        <mxCell id="BbXF_XF0yoowA5S_xDoE-50" value="" style="ellipse;whiteSpace=wrap;html=1;aspect=fixed;fillColor=#43AA8B;strokeColor=#43AA8B;" vertex="1" parent="1">
          <mxGeometry x="365" y="150" width="10" height="10" as="geometry" />
        </mxCell>
        <mxCell id="BbXF_XF0yoowA5S_xDoE-51" value="" style="ellipse;whiteSpace=wrap;html=1;aspect=fixed;fillColor=default;strokeColor=#43AA8B;" vertex="1" parent="1">
          <mxGeometry x="365" y="130" width="10" height="10" as="geometry" />
        </mxCell>
        <mxCell id="BbXF_XF0yoowA5S_xDoE-52" value="" style="ellipse;whiteSpace=wrap;html=1;aspect=fixed;fillColor=default;strokeColor=#43AA8B;" vertex="1" parent="1">
          <mxGeometry x="375" y="140" width="10" height="10" as="geometry" />
        </mxCell>
        <mxCell id="BbXF_XF0yoowA5S_xDoE-53" value="" style="whiteSpace=wrap;html=1;aspect=fixed;strokeColor=#F8961E;" vertex="1" parent="1">
          <mxGeometry x="395" y="90" width="10" height="10" as="geometry" />
        </mxCell>
        <mxCell id="BbXF_XF0yoowA5S_xDoE-54" value="" style="whiteSpace=wrap;html=1;aspect=fixed;strokeColor=#F8961E;" vertex="1" parent="1">
          <mxGeometry x="425" y="140" width="10" height="10" as="geometry" />
        </mxCell>
        <mxCell id="BbXF_XF0yoowA5S_xDoE-55" value="" style="whiteSpace=wrap;html=1;aspect=fixed;strokeColor=#F8961E;" vertex="1" parent="1">
          <mxGeometry x="395" y="120" width="10" height="10" as="geometry" />
        </mxCell>
        <mxCell id="BbXF_XF0yoowA5S_xDoE-56" value="" style="whiteSpace=wrap;html=1;aspect=fixed;strokeColor=#F94144;fillColor=default;dashed=1;fillStyle=auto;" vertex="1" parent="1">
          <mxGeometry x="415" y="120" width="10" height="10" as="geometry" />
        </mxCell>
        <mxCell id="BbXF_XF0yoowA5S_xDoE-57" value="" style="whiteSpace=wrap;html=1;aspect=fixed;strokeColor=#F8961E;fillColor=#F8961E;" vertex="1" parent="1">
          <mxGeometry x="435" y="100" width="10" height="10" as="geometry" />
        </mxCell>
        <mxCell id="BbXF_XF0yoowA5S_xDoE-58" value="" style="whiteSpace=wrap;html=1;aspect=fixed;strokeColor=#F94144;fillColor=default;dashed=1;fillStyle=auto;" vertex="1" parent="1">
          <mxGeometry x="445" y="120" width="10" height="10" as="geometry" />
        </mxCell>
        <mxCell id="BbXF_XF0yoowA5S_xDoE-59" value="" style="whiteSpace=wrap;html=1;aspect=fixed;strokeColor=#F94144;fillColor=default;dashed=1;fillStyle=auto;" vertex="1" parent="1">
          <mxGeometry x="445" y="150" width="10" height="10" as="geometry" />
        </mxCell>
        <mxCell id="BbXF_XF0yoowA5S_xDoE-60" value="" style="whiteSpace=wrap;html=1;aspect=fixed;strokeColor=#F8961E;" vertex="1" parent="1">
          <mxGeometry x="445" y="180" width="10" height="10" as="geometry" />
        </mxCell>
        <mxCell id="BbXF_XF0yoowA5S_xDoE-61" value="" style="whiteSpace=wrap;html=1;aspect=fixed;strokeColor=#F8961E;" vertex="1" parent="1">
          <mxGeometry x="465" y="160" width="10" height="10" as="geometry" />
        </mxCell>
        <mxCell id="BbXF_XF0yoowA5S_xDoE-62" value="" style="whiteSpace=wrap;html=1;aspect=fixed;strokeColor=#F8961E;fillColor=#F8961E;" vertex="1" parent="1">
          <mxGeometry x="465" y="140" width="10" height="10" as="geometry" />
        </mxCell>
        <mxCell id="BbXF_XF0yoowA5S_xDoE-63" value="" style="whiteSpace=wrap;html=1;aspect=fixed;strokeColor=#F8961E;" vertex="1" parent="1">
          <mxGeometry x="495" y="130" width="10" height="10" as="geometry" />
        </mxCell>
        <mxCell id="BbXF_XF0yoowA5S_xDoE-64" value="" style="whiteSpace=wrap;html=1;aspect=fixed;strokeColor=#F94144;fillColor=default;dashed=1;fillStyle=auto;" vertex="1" parent="1">
          <mxGeometry x="475" y="120" width="10" height="10" as="geometry" />
        </mxCell>
        <mxCell id="BbXF_XF0yoowA5S_xDoE-65" value="" style="whiteSpace=wrap;html=1;aspect=fixed;strokeColor=#F8961E;" vertex="1" parent="1">
          <mxGeometry x="465" y="100" width="10" height="10" as="geometry" />
        </mxCell>
        <mxCell id="BbXF_XF0yoowA5S_xDoE-66" value="" style="whiteSpace=wrap;html=1;aspect=fixed;strokeColor=#F8961E;" vertex="1" parent="1">
          <mxGeometry x="485" y="150" width="10" height="10" as="geometry" />
        </mxCell>
        <mxCell id="BbXF_XF0yoowA5S_xDoE-67" value="" style="whiteSpace=wrap;html=1;aspect=fixed;strokeColor=#F94144;fillColor=default;dashed=1;fillStyle=auto;" vertex="1" parent="1">
          <mxGeometry x="485" y="170" width="10" height="10" as="geometry" />
        </mxCell>
        <mxCell id="BbXF_XF0yoowA5S_xDoE-68" value="" style="whiteSpace=wrap;html=1;aspect=fixed;strokeColor=#F94144;fillColor=default;dashed=1;fillStyle=auto;" vertex="1" parent="1">
          <mxGeometry x="475" y="190" width="10" height="10" as="geometry" />
        </mxCell>
        <mxCell id="BbXF_XF0yoowA5S_xDoE-69" value="" style="whiteSpace=wrap;html=1;aspect=fixed;strokeColor=#F8961E;fillColor=#F8961E;" vertex="1" parent="1">
          <mxGeometry x="495" y="190" width="10" height="10" as="geometry" />
        </mxCell>
        <mxCell id="BbXF_XF0yoowA5S_xDoE-70" value="" style="whiteSpace=wrap;html=1;aspect=fixed;strokeColor=#F8961E;fillColor=#F8961E;" vertex="1" parent="1">
          <mxGeometry x="375" y="100" width="10" height="10" as="geometry" />
        </mxCell>
        <mxCell id="BbXF_XF0yoowA5S_xDoE-71" value="" style="ellipse;whiteSpace=wrap;html=1;aspect=fixed;fillColor=default;strokeColor=#43AA8B;" vertex="1" parent="1">
          <mxGeometry x="465" y="220" width="10" height="10" as="geometry" />
        </mxCell>
        <mxCell id="BbXF_XF0yoowA5S_xDoE-72" value="" style="ellipse;whiteSpace=wrap;html=1;aspect=fixed;fillColor=default;strokeColor=#43AA8B;" vertex="1" parent="1">
          <mxGeometry x="425" y="250" width="10" height="10" as="geometry" />
        </mxCell>
        <mxCell id="BbXF_XF0yoowA5S_xDoE-73" value="" style="ellipse;whiteSpace=wrap;html=1;aspect=fixed;fillColor=default;strokeColor=#43AA8B;" vertex="1" parent="1">
          <mxGeometry x="635" y="170" width="10" height="10" as="geometry" />
        </mxCell>
        <mxCell id="BbXF_XF0yoowA5S_xDoE-74" value="" style="ellipse;whiteSpace=wrap;html=1;aspect=fixed;fillColor=default;strokeColor=#43AA8B;" vertex="1" parent="1">
          <mxGeometry x="635" y="190" width="10" height="10" as="geometry" />
        </mxCell>
        <mxCell id="BbXF_XF0yoowA5S_xDoE-75" value="" style="ellipse;whiteSpace=wrap;html=1;aspect=fixed;fillColor=default;strokeColor=#43AA8B;" vertex="1" parent="1">
          <mxGeometry x="675" y="200" width="10" height="10" as="geometry" />
        </mxCell>
        <mxCell id="BbXF_XF0yoowA5S_xDoE-76" value="" style="ellipse;whiteSpace=wrap;html=1;aspect=fixed;fillColor=#43AA8B;strokeColor=#43AA8B;" vertex="1" parent="1">
          <mxGeometry x="655" y="190" width="10" height="10" as="geometry" />
        </mxCell>
        <mxCell id="BbXF_XF0yoowA5S_xDoE-77" value="" style="ellipse;whiteSpace=wrap;html=1;aspect=fixed;fillColor=default;strokeColor=#43AA8B;" vertex="1" parent="1">
          <mxGeometry x="685" y="220" width="10" height="10" as="geometry" />
        </mxCell>
        <mxCell id="BbXF_XF0yoowA5S_xDoE-78" value="" style="ellipse;whiteSpace=wrap;html=1;aspect=fixed;fillColor=default;strokeColor=#43AA8B;" vertex="1" parent="1">
          <mxGeometry x="715" y="200" width="10" height="10" as="geometry" />
        </mxCell>
        <mxCell id="BbXF_XF0yoowA5S_xDoE-79" value="" style="ellipse;whiteSpace=wrap;html=1;aspect=fixed;fillColor=#43AA8B;strokeColor=#43AA8B;" vertex="1" parent="1">
          <mxGeometry x="705" y="220" width="10" height="10" as="geometry" />
        </mxCell>
        <mxCell id="BbXF_XF0yoowA5S_xDoE-80" value="" style="ellipse;whiteSpace=wrap;html=1;aspect=fixed;fillColor=default;strokeColor=#43AA8B;" vertex="1" parent="1">
          <mxGeometry x="715" y="230" width="10" height="10" as="geometry" />
        </mxCell>
        <mxCell id="BbXF_XF0yoowA5S_xDoE-81" value="" style="ellipse;whiteSpace=wrap;html=1;aspect=fixed;fillColor=#43AA8B;strokeColor=#43AA8B;" vertex="1" parent="1">
          <mxGeometry x="675" y="240" width="10" height="10" as="geometry" />
        </mxCell>
        <mxCell id="BbXF_XF0yoowA5S_xDoE-82" value="" style="ellipse;whiteSpace=wrap;html=1;aspect=fixed;fillColor=default;strokeColor=#43AA8B;" vertex="1" parent="1">
          <mxGeometry x="655" y="220" width="10" height="10" as="geometry" />
        </mxCell>
        <mxCell id="BbXF_XF0yoowA5S_xDoE-83" value="" style="ellipse;whiteSpace=wrap;html=1;aspect=fixed;fillColor=#43AA8B;strokeColor=#43AA8B;" vertex="1" parent="1">
          <mxGeometry x="625" y="210" width="10" height="10" as="geometry" />
        </mxCell>
        <mxCell id="BbXF_XF0yoowA5S_xDoE-84" value="" style="ellipse;whiteSpace=wrap;html=1;aspect=fixed;fillColor=#43AA8B;strokeColor=#43AA8B;" vertex="1" parent="1">
          <mxGeometry x="685" y="190" width="10" height="10" as="geometry" />
        </mxCell>
        <mxCell id="BbXF_XF0yoowA5S_xDoE-85" value="" style="ellipse;whiteSpace=wrap;html=1;aspect=fixed;fillColor=default;strokeColor=#43AA8B;" vertex="1" parent="1">
          <mxGeometry x="665" y="170" width="10" height="10" as="geometry" />
        </mxCell>
        <mxCell id="BbXF_XF0yoowA5S_xDoE-86" value="" style="ellipse;whiteSpace=wrap;html=1;aspect=fixed;fillColor=#43AA8B;strokeColor=#43AA8B;" vertex="1" parent="1">
          <mxGeometry x="685" y="160" width="10" height="10" as="geometry" />
        </mxCell>
        <mxCell id="BbXF_XF0yoowA5S_xDoE-87" value="" style="ellipse;whiteSpace=wrap;html=1;aspect=fixed;fillColor=default;strokeColor=#43AA8B;" vertex="1" parent="1">
          <mxGeometry x="625" y="140" width="10" height="10" as="geometry" />
        </mxCell>
        <mxCell id="BbXF_XF0yoowA5S_xDoE-88" value="" style="ellipse;whiteSpace=wrap;html=1;aspect=fixed;fillColor=#43AA8B;strokeColor=#43AA8B;" vertex="1" parent="1">
          <mxGeometry x="645" y="150" width="10" height="10" as="geometry" />
        </mxCell>
        <mxCell id="BbXF_XF0yoowA5S_xDoE-89" value="" style="ellipse;whiteSpace=wrap;html=1;aspect=fixed;fillColor=default;strokeColor=#43AA8B;" vertex="1" parent="1">
          <mxGeometry x="645" y="130" width="10" height="10" as="geometry" />
        </mxCell>
        <mxCell id="BbXF_XF0yoowA5S_xDoE-90" value="" style="ellipse;whiteSpace=wrap;html=1;aspect=fixed;fillColor=default;strokeColor=#43AA8B;" vertex="1" parent="1">
          <mxGeometry x="655" y="140" width="10" height="10" as="geometry" />
        </mxCell>
        <mxCell id="BbXF_XF0yoowA5S_xDoE-91" value="" style="whiteSpace=wrap;html=1;aspect=fixed;strokeColor=#F8961E;" vertex="1" parent="1">
          <mxGeometry x="675" y="90" width="10" height="10" as="geometry" />
        </mxCell>
        <mxCell id="BbXF_XF0yoowA5S_xDoE-92" value="" style="whiteSpace=wrap;html=1;aspect=fixed;strokeColor=#F8961E;" vertex="1" parent="1">
          <mxGeometry x="705" y="140" width="10" height="10" as="geometry" />
        </mxCell>
        <mxCell id="BbXF_XF0yoowA5S_xDoE-93" value="" style="whiteSpace=wrap;html=1;aspect=fixed;strokeColor=#F8961E;fillColor=#F8961E;" vertex="1" parent="1">
          <mxGeometry x="675" y="120" width="10" height="10" as="geometry" />
        </mxCell>
        <mxCell id="BbXF_XF0yoowA5S_xDoE-94" value="" style="whiteSpace=wrap;html=1;aspect=fixed;strokeColor=#F8961E;" vertex="1" parent="1">
          <mxGeometry x="695" y="120" width="10" height="10" as="geometry" />
        </mxCell>
        <mxCell id="BbXF_XF0yoowA5S_xDoE-95" value="" style="whiteSpace=wrap;html=1;aspect=fixed;strokeColor=#F8961E;fillColor=#F8961E;" vertex="1" parent="1">
          <mxGeometry x="715" y="100" width="10" height="10" as="geometry" />
        </mxCell>
        <mxCell id="BbXF_XF0yoowA5S_xDoE-96" value="" style="whiteSpace=wrap;html=1;aspect=fixed;strokeColor=#F8961E;" vertex="1" parent="1">
          <mxGeometry x="725" y="120" width="10" height="10" as="geometry" />
        </mxCell>
        <mxCell id="BbXF_XF0yoowA5S_xDoE-97" value="" style="whiteSpace=wrap;html=1;aspect=fixed;strokeColor=#F8961E;" vertex="1" parent="1">
          <mxGeometry x="725" y="150" width="10" height="10" as="geometry" />
        </mxCell>
        <mxCell id="BbXF_XF0yoowA5S_xDoE-98" value="" style="whiteSpace=wrap;html=1;aspect=fixed;strokeColor=#F8961E;fillColor=#F8961E;" vertex="1" parent="1">
          <mxGeometry x="725" y="180" width="10" height="10" as="geometry" />
        </mxCell>
        <mxCell id="BbXF_XF0yoowA5S_xDoE-99" value="" style="whiteSpace=wrap;html=1;aspect=fixed;strokeColor=#F8961E;" vertex="1" parent="1">
          <mxGeometry x="745" y="160" width="10" height="10" as="geometry" />
        </mxCell>
        <mxCell id="BbXF_XF0yoowA5S_xDoE-100" value="" style="whiteSpace=wrap;html=1;aspect=fixed;strokeColor=#F8961E;fillColor=#F8961E;" vertex="1" parent="1">
          <mxGeometry x="745" y="140" width="10" height="10" as="geometry" />
        </mxCell>
        <mxCell id="BbXF_XF0yoowA5S_xDoE-101" value="" style="whiteSpace=wrap;html=1;aspect=fixed;strokeColor=#F8961E;" vertex="1" parent="1">
          <mxGeometry x="775" y="130" width="10" height="10" as="geometry" />
        </mxCell>
        <mxCell id="BbXF_XF0yoowA5S_xDoE-102" value="" style="whiteSpace=wrap;html=1;aspect=fixed;strokeColor=#F8961E;" vertex="1" parent="1">
          <mxGeometry x="755" y="120" width="10" height="10" as="geometry" />
        </mxCell>
        <mxCell id="BbXF_XF0yoowA5S_xDoE-103" value="" style="whiteSpace=wrap;html=1;aspect=fixed;strokeColor=#F8961E;fillColor=#F8961E;" vertex="1" parent="1">
          <mxGeometry x="745" y="100" width="10" height="10" as="geometry" />
        </mxCell>
        <mxCell id="BbXF_XF0yoowA5S_xDoE-104" value="" style="whiteSpace=wrap;html=1;aspect=fixed;strokeColor=#F8961E;" vertex="1" parent="1">
          <mxGeometry x="765" y="150" width="10" height="10" as="geometry" />
        </mxCell>
        <mxCell id="BbXF_XF0yoowA5S_xDoE-105" value="" style="whiteSpace=wrap;html=1;aspect=fixed;strokeColor=#F8961E;" vertex="1" parent="1">
          <mxGeometry x="765" y="170" width="10" height="10" as="geometry" />
        </mxCell>
        <mxCell id="BbXF_XF0yoowA5S_xDoE-106" value="" style="whiteSpace=wrap;html=1;aspect=fixed;strokeColor=#F8961E;" vertex="1" parent="1">
          <mxGeometry x="755" y="190" width="10" height="10" as="geometry" />
        </mxCell>
        <mxCell id="BbXF_XF0yoowA5S_xDoE-107" value="" style="whiteSpace=wrap;html=1;aspect=fixed;strokeColor=#F8961E;fillColor=#F8961E;" vertex="1" parent="1">
          <mxGeometry x="775" y="190" width="10" height="10" as="geometry" />
        </mxCell>
        <mxCell id="BbXF_XF0yoowA5S_xDoE-108" value="" style="whiteSpace=wrap;html=1;aspect=fixed;strokeColor=#F8961E;fillColor=#F8961E;" vertex="1" parent="1">
          <mxGeometry x="655" y="100" width="10" height="10" as="geometry" />
        </mxCell>
        <mxCell id="BbXF_XF0yoowA5S_xDoE-109" value="" style="ellipse;whiteSpace=wrap;html=1;aspect=fixed;fillColor=default;strokeColor=#43AA8B;" vertex="1" parent="1">
          <mxGeometry x="745" y="220" width="10" height="10" as="geometry" />
        </mxCell>
        <mxCell id="BbXF_XF0yoowA5S_xDoE-110" value="" style="ellipse;whiteSpace=wrap;html=1;aspect=fixed;fillColor=default;strokeColor=#43AA8B;" vertex="1" parent="1">
          <mxGeometry x="705" y="250" width="10" height="10" as="geometry" />
        </mxCell>
        <mxCell id="BbXF_XF0yoowA5S_xDoE-111" value="Desbalanceado" style="text;html=1;strokeColor=none;fillColor=none;align=center;verticalAlign=middle;whiteSpace=wrap;rounded=0;fontStyle=1" vertex="1" parent="1">
          <mxGeometry x="115" y="50" width="60" height="30" as="geometry" />
        </mxCell>
        <mxCell id="BbXF_XF0yoowA5S_xDoE-112" value="SMOTE" style="text;html=1;strokeColor=none;fillColor=none;align=center;verticalAlign=middle;whiteSpace=wrap;rounded=0;fontStyle=1" vertex="1" parent="1">
          <mxGeometry x="395" y="50" width="60" height="30" as="geometry" />
        </mxCell>
        <mxCell id="BbXF_XF0yoowA5S_xDoE-113" value="Balanceado" style="text;html=1;strokeColor=none;fillColor=none;align=center;verticalAlign=middle;whiteSpace=wrap;rounded=0;fontStyle=1" vertex="1" parent="1">
          <mxGeometry x="675" y="50" width="60" height="30" as="geometry" />
        </mxCell>
        <mxCell id="BbXF_XF0yoowA5S_xDoE-114" value="" style="shape=flexArrow;endArrow=classic;html=1;rounded=0;strokeColor=#E6E6E6;fillColor=#E6E6E6;" edge="1" parent="1">
          <mxGeometry width="50" height="50" relative="1" as="geometry">
            <mxPoint x="265" y="170" as="sourcePoint" />
            <mxPoint x="305" y="170" as="targetPoint" />
          </mxGeometry>
        </mxCell>
        <mxCell id="BbXF_XF0yoowA5S_xDoE-115" value="" style="shape=flexArrow;endArrow=classic;html=1;rounded=0;strokeColor=#E6E6E6;fillColor=#E6E6E6;" edge="1" parent="1">
          <mxGeometry width="50" height="50" relative="1" as="geometry">
            <mxPoint x="545" y="169.31" as="sourcePoint" />
            <mxPoint x="585" y="169.31" as="targetPoint" />
          </mxGeometry>
        </mxCell>
        <mxCell id="BbXF_XF0yoowA5S_xDoE-116" value="" style="whiteSpace=wrap;html=1;aspect=fixed;strokeColor=#F8961E;fillColor=none;" vertex="1" parent="1">
          <mxGeometry x="145" y="300" width="10" height="10" as="geometry" />
        </mxCell>
        <mxCell id="BbXF_XF0yoowA5S_xDoE-117" value="" style="ellipse;whiteSpace=wrap;html=1;aspect=fixed;fillColor=none;strokeColor=#43AA8B;" vertex="1" parent="1">
          <mxGeometry x="125" y="300" width="10" height="10" as="geometry" />
        </mxCell>
        <mxCell id="BbXF_XF0yoowA5S_xDoE-118" value="Amostras de treinamento" style="text;html=1;strokeColor=none;fillColor=none;align=left;verticalAlign=middle;whiteSpace=wrap;rounded=0;" vertex="1" parent="1">
          <mxGeometry x="165" y="290" width="150" height="30" as="geometry" />
        </mxCell>
        <mxCell id="BbXF_XF0yoowA5S_xDoE-119" value="" style="whiteSpace=wrap;html=1;aspect=fixed;strokeColor=#F8961E;fillColor=#F8961E;" vertex="1" parent="1">
          <mxGeometry x="365" y="300" width="10" height="10" as="geometry" />
        </mxCell>
        <mxCell id="BbXF_XF0yoowA5S_xDoE-120" value="" style="ellipse;whiteSpace=wrap;html=1;aspect=fixed;fillColor=#43AA8B;strokeColor=#43AA8B;" vertex="1" parent="1">
          <mxGeometry x="345" y="300" width="10" height="10" as="geometry" />
        </mxCell>
        <mxCell id="BbXF_XF0yoowA5S_xDoE-121" value="Amostras de teste" style="text;html=1;strokeColor=none;fillColor=none;align=left;verticalAlign=middle;whiteSpace=wrap;rounded=0;" vertex="1" parent="1">
          <mxGeometry x="385" y="290" width="150" height="30" as="geometry" />
        </mxCell>
        <mxCell id="BbXF_XF0yoowA5S_xDoE-122" value="" style="whiteSpace=wrap;html=1;aspect=fixed;strokeColor=#F94144;fillColor=default;dashed=1;fillStyle=auto;" vertex="1" parent="1">
          <mxGeometry x="525" y="300" width="10" height="10" as="geometry" />
        </mxCell>
        <mxCell id="BbXF_XF0yoowA5S_xDoE-123" value="Amostras de treinamento criadas" style="text;html=1;strokeColor=none;fillColor=none;align=left;verticalAlign=middle;whiteSpace=wrap;rounded=0;" vertex="1" parent="1">
          <mxGeometry x="545" y="290" width="180" height="30" as="geometry" />
        </mxCell>
      </root>
    </mxGraphModel>
  </diagram>
</mxfile>
